<?xml version="1.0" encoding="UTF-8"?>
<svg id="Capa_1" xmlns="http://www.w3.org/2000/svg" version="1.1" viewBox="0 0 149.89 252.49">
  <!-- Generator: Adobe Illustrator 30.0.0, SVG Export Plug-In . SVG Version: 2.1.1 Build 123)  -->
  <path d="M78.11,13.07c9.51,1.14,17.61,8.83,19.55,18.12l26.58.06c4.19.47,5.5,3.15,4.97,7.14l-8.64,68.85c-.58,1.71-1.78,2.53-3.45,3.04H33.9c-2.17-.61-3.23-1.85-3.76-4.03l-8.33-67.86c-.51-3.67.64-6.57,4.58-7.1l26.97-.1c1.94-9.29,10.04-16.98,19.55-18.12,1.25-.15,3.95-.15,5.2,0ZM87.2,31.25c-3.52-10.99-19.88-10.97-23.39,0h23.39ZM118.82,41.21H32.2l7.34,59.12h71.95l7.34-59.12Z"/>
  <path d="M138.16,122.74c1.6,1.7,1.65,4.78.16,6.57-1.9,2.27-6,1.98-8.67,1.94-.78,17.4-10.71,32.39-24.59,42.25l8.45,55.93c0,2.9-2.38,5.4-5.28,5.3l-64.36-.21c-2.01-1.11-3.41-2.76-3.39-5.17l8.2-54.5c-15.51-8.91-26.44-25.5-27.31-43.6-7.19,1.65-14.26-4.81-6.52-9.76h121.3c.58.41,1.55.76,2,1.25ZM119.68,131.25H31.33c1.94,27.8,29.26,46.66,56.3,39.18,17.37-4.81,31.17-21.01,32.05-39.18ZM102.79,224.75l-6.93-46.75c-7.7,3.05-16.14,4.47-24.46,3.89-4.49-.31-8.82-1.77-13.24-2.41l-6.91,45.27h51.54Z"/>
</svg>