<?xml version="1.0" encoding="UTF-8"?>
<svg id="Capa_1" xmlns="http://www.w3.org/2000/svg" version="1.1" viewBox="0 0 24 24">
  <!-- Generator: Adobe Illustrator 30.0.0, SVG Export Plug-In . SVG Version: 2.1.1 Build 123)  -->
  <defs>
    <style>
      .st0 {
        fill: #6b9a4a;
        fill-rule: evenodd;
      }
    </style>
  </defs>
  <path class="st0" d="M11.99.33C5.58.33.38,5.52.38,11.94s5.2,11.61,11.61,11.61,11.61-5.2,11.61-11.61S18.4.33,11.99.33ZM11.99,21.06c-5.04,0-9.13-4.09-9.13-9.13S6.95,2.81,11.99,2.81s9.13,4.09,9.13,9.13-4.09,9.13-9.13,9.13Z"/>
  <path class="st0" d="M8.43,5.76h7.13c.47,0,.85.38.85.85v.46c0,.47-.38.85-.85.85h-5.12c-.47,0-.85.38-.85.85v1.25c0,.47.38.85.85.85h5.12c.47,0,.85.38.85.85v.46c0,.47-.38.85-.85.85h-5.12c-.47,0-.85.38-.85.85v1.17c0,.47.38.85.85.85h5.12c.47,0,.85.38.85.85v.47c0,.47-.38.85-.85.85h-7.13c-.47,0-.85-.38-.85-.85V6.61c0-.47.38-.85.86-.85Z"/>
</svg>