<?xml version="1.0" encoding="UTF-8"?>
<svg id="Capa_1" xmlns="http://www.w3.org/2000/svg" version="1.1" viewBox="0 0 24 24">
  <!-- Generator: Adobe Illustrator 30.0.0, SVG Export Plug-In . SVG Version: 2.1.1 Build 123)  -->
  <defs>
    <style>
      .st0 {
        fill: none;
        stroke: #6c9b4b;
        stroke-linecap: round;
        stroke-linejoin: round;
        stroke-width: 2px;
      }
    </style>
  </defs>
  <path class="st0" d="M8.79,12.22h.01"/>
  <path class="st0" d="M15.31,12.22h.01"/>
  <path class="st0" d="M9.88,16.57c.54.33,1.3.54,2.17.54s1.63-.22,2.17-.54"/>
  <path class="st0" d="M19.65,6.03c.98,1.23,1.66,2.69,1.96,4.24,1.08.52,1.53,1.82,1.01,2.9-.21.44-.57.8-1.01,1.01-1.13,5.28-6.33,8.64-11.61,7.51-3.76-.81-6.7-3.75-7.51-7.51-1.08-.52-1.53-1.82-1.01-2.9.21-.44.57-.8,1.01-1.01.93-4.55,4.92-7.81,9.56-7.82,2.17,0,3.8,1.2,3.8,2.72s-.98,2.72-2.17,2.72c-.87,0-1.63-.43-1.63-1.09"/>
</svg>