<?xml version="1.0" encoding="UTF-8"?>
<svg id="Capa_1" xmlns="http://www.w3.org/2000/svg" version="1.1" viewBox="0 0 24 24">
  <!-- Generator: Adobe Illustrator 30.0.0, SVG Export Plug-In . SVG Version: 2.1.1 Build 123)  -->
  <defs>
    <style>
      .st0 {
        fill: none;
        stroke: #6c9b4b;
        stroke-linecap: round;
        stroke-linejoin: round;
        stroke-width: 2px;
      }
    </style>
  </defs>
  <path class="st0" d="M10.14,9.34v.22c1.71.66,2.56,2.58,1.91,4.29-.5,1.29-1.74,2.14-3.12,2.13h-4.31c-1.83-.05-3.28-1.57-3.23-3.4.03-1.34.87-2.53,2.13-3.02v-.22c0-1.83,1.49-3.32,3.32-3.32s3.32,1.49,3.32,3.32Z"/>
  <path class="st0" d="M6.82,15.98v6.64"/>
  <path class="st0" d="M13.45,19.3v3.32"/>
  <path class="st0" d="M12.35,19.3h9.18c.61,0,1.1-.51,1.09-1.12,0-.28-.12-.56-.32-.76l-3.32-3.65h.33c.61,0,1.1-.51,1.09-1.12,0-.28-.12-.56-.32-.76l-3.32-3.65h.22c.61.05,1.15-.39,1.2-1,.03-.32-.09-.65-.32-.88L13.45,1.6l-1.55,1.66"/>
</svg>