<?xml version="1.0" encoding="UTF-8"?>
<svg id="Capa_1" xmlns="http://www.w3.org/2000/svg" version="1.1" viewBox="0 0 24 24">
  <!-- Generator: Adobe Illustrator 30.0.0, SVG Export Plug-In . SVG Version: 2.1.1 Build 123)  -->
  <defs>
    <style>
      .st0 {
        fill: none;
        stroke: #6c9b4b;
        stroke-linecap: round;
        stroke-linejoin: round;
        stroke-width: 2px;
      }
    </style>
  </defs>
  <path class="st0" d="M1.37,5.61c.64.53,1.28,1.06,2.66,1.06,2.66,0,2.66-2.13,5.32-2.13s2.55,2.13,5.32,2.13,2.66-2.13,5.32-2.13c1.38,0,2.02.53,2.66,1.06"/>
  <path class="st0" d="M1.37,12c.64.53,1.28,1.06,2.66,1.06,2.66,0,2.66-2.13,5.32-2.13s2.55,2.13,5.32,2.13,2.66-2.13,5.32-2.13c1.38,0,2.02.53,2.66,1.06"/>
  <path class="st0" d="M1.37,18.39c.64.53,1.28,1.06,2.66,1.06,2.66,0,2.66-2.13,5.32-2.13s2.55,2.13,5.32,2.13,2.66-2.13,5.32-2.13c1.38,0,2.02.53,2.66,1.06"/>
</svg>