<?xml version="1.0" encoding="UTF-8"?>
<svg id="Capa_1" xmlns="http://www.w3.org/2000/svg" version="1.1" viewBox="0 0 792.64 749.44">
  <!-- Generator: Adobe Illustrator 30.0.0, SVG Export Plug-In . SVG Version: 2.1.1 Build 123)  -->
  <defs>
    <style>
      .st0 {
        fill: #6c9b4b;
      }
    </style>
  </defs>
  <path class="st0" d="M784.99,379.8c0,1.44-.57,2.8-1.54,3.68l-42.37,38.53c-1.45,1.32-3.48,1.31-4.93-.01l-55.05-50.5c-2.63-2.41-6.47-.22-6.47,3.67v354.62c0,3.47-1.23,3.2-2.74,3.2l-65.05-.72c-.69,0-1.24-.65-1.24-1.46.09-27.16,1.49-428.33,1.49-428.33,0-.96-.37-1.87-1.01-2.48l-206.72-196.89c-1.47-1.4-3.58-1.4-5.05,0l-206.76,196.45c-.93.89-1.48,2.22-1.48,3.62v425.13c0,2.58-1.79,4.67-4,4.67h-59.53c-2.21,0-4-2.09-4-4.67v-353.14c0-3.9-3.85-6.08-6.47-3.67l-55.03,50.54c-1.45,1.33-3.48,1.33-4.93.01l-42.38-38.58c-.97-.88-1.54-2.24-1.54-3.67h0c0-1.41.54-2.75,1.48-3.64L394.83,11.49c1.01-.95,2.44-.95,3.45,0l385.23,364.68c.94.89,1.48,2.22,1.48,3.63h0Z"/>
</svg>