<?xml version="1.0" encoding="UTF-8"?>
<svg id="Capa_1" xmlns="http://www.w3.org/2000/svg" version="1.1" viewBox="0 0 24 24">
  <!-- Generator: Adobe Illustrator 30.0.0, SVG Export Plug-In . SVG Version: 2.1.1 Build 123)  -->
  <defs>
    <style>
      .st0 {
        fill: none;
        stroke: #6c9b4b;
        stroke-linecap: round;
        stroke-linejoin: round;
        stroke-width: 2px;
      }
    </style>
  </defs>
  <path class="st0" d="M5.33,11.27L1.25,22.75l11.48-4.07"/>
  <path class="st0" d="M3.4,2.36h.01"/>
  <path class="st0" d="M22.71,7.73h.01"/>
  <path class="st0" d="M15.2,1.29h.01"/>
  <path class="st0" d="M22.71,20.6h.01"/>
  <path class="st0" d="M22.71,1.29l-2.4.8c-1.41.47-2.29,1.87-2.1,3.35.11.92-.61,1.75-1.56,1.75h-.41c-.92,0-1.72.64-1.89,1.55l-.23,1.14"/>
  <path class="st0" d="M22.71,13.09l-.88-.35c-.92-.36-1.95.21-2.13,1.19-.12.75-.77,1.31-1.53,1.31h-.83"/>
  <path class="st0" d="M10.91,1.29l.35.88c.36.92-.21,1.95-1.19,2.13-.75.11-1.31.77-1.31,1.53v.83"/>
  <path class="st0" d="M10.91,13.09c2.07,2.07,3.04,4.48,2.15,5.37s-3.29-.08-5.37-2.15c-2.07-2.07-3.04-4.48-2.15-5.37s3.29.08,5.37,2.15Z"/>
</svg>